# xmcd
#
# Track frame offsets:
#	150
#	6882
#	33576
#	51520
#	84754
#	93900
#	120774
#	146165
#	158606
#	170413
#	196437
#	217007
#	250757
#
# Disc length: 3544 seconds
#
# Revision: 1
# Processed by: cddbd v1.5.1PL0 Copyright (c) Steve Scherf et al.
# Submitted via: audiograbber 1.82.01
#
DISCID=a60dd60d
DTITLE=B B King - 1973-11-04 - Berlin, Germany - "Live at the Berliner Jazztage
DTITLE="
DYEAR=1900
DGENRE=
TTITLE0=B B King - Everyday I Have The Blues
TTITLE1=B B King - How Blue Can You Get
TTITLE2=B B King - To Know You Is To Love You
TTITLE3=B B King - Crying Won't Help You
TTITLE4=B B King - Band Intros
TTITLE5=B B King - I Need My Baby
TTITLE6=B B King - I've Got Some Outside Help I Don't Need
TTITLE7=B B King - When The Saints Go Marching In
TTITLE8=B B King - Instrumental
TTITLE9=B B King - Instrumental
TTITLE10=B B King - All Over Again
TTITLE11=B B King - The Thrill Is Gone
TTITLE12=B B King - Guess Who
EXTD=
EXTT0=
EXTT1=
EXTT2=
EXTT3=
EXTT4=
EXTT5=
EXTT6=
EXTT7=
EXTT8=
EXTT9=
EXTT10=
EXTT11=
EXTT12=
PLAYORDER=
